<?xml version="1.0" encoding="UTF-8"?>
<svg version="1.1" xmlns="http://www.w3.org/2000/svg" width="1396" height="1526">
<path d="M0 0 C2.48785996 1.44075434 4.69991109 2.97627455 6.96875 4.7421875 C21.53681469 15.52684583 37.48916961 24.30583915 53.45361328 32.82128906 C56.64833289 34.52548443 59.83814486 36.23862211 63.02734375 37.953125 C72.74265192 43.17084825 82.46337905 48.37704395 92.21875 53.51953125 C123.33788711 69.94082937 153.48065817 87.60665432 179.04052734 112.06445312 C180.31637576 113.28403335 181.60464562 114.4905884 182.89453125 115.6953125 C189.49274149 122.02396885 195.04360531 129.09551524 200.46875 136.4296875 C200.8930127 136.99896973 201.31727539 137.56825195 201.75439453 138.15478516 C232.84296219 180.46876763 241.49423521 240.83418413 234.34375 292.1171875 C230.63766816 314.95842709 220.78707639 334.28330948 202.1171875 348.55859375 C179.93306248 364.23144903 153.0604176 369.70291481 126.46875 372.4296875 C125.59508789 372.5232251 124.72142578 372.6167627 123.82128906 372.71313477 C117.70483073 373.30117433 111.62402287 373.52264622 105.484375 373.60546875 C104.69202454 373.61747818 103.89967407 373.62948761 103.08331299 373.64186096 C99.7959196 373.69037249 96.50891628 373.73793929 93.22119141 373.75561523 C90.78750119 373.77116979 88.3551942 373.8113637 85.921875 373.85546875 C84.82628265 373.85260612 84.82628265 373.85260612 83.70855713 373.84968567 C76.73476621 374.01364235 71.13629046 376.44408009 66.28125 381.4921875 C34.61798233 422.14097707 45.04835539 502.13514892 45.46875 550.4296875 C45.76793335 549.93318192 46.0671167 549.43667633 46.37536621 548.92512512 C57.42054707 530.62932346 57.42054707 530.62932346 62.96875 523.1171875 C63.78073853 522.00694214 63.78073853 522.00694214 64.60913086 520.87426758 C79.63568068 500.54345343 97.32284536 482.4993293 116.84375 466.4921875 C117.59124512 465.87738525 118.33874023 465.26258301 119.10888672 464.62915039 C122.91083732 461.50732743 126.7308152 458.41346159 130.59375 455.3671875 C136.09637109 450.99498603 141.36200717 446.35363788 146.66015625 441.73828125 C154.87014587 434.59166494 163.21448929 427.61338808 171.65625 420.7421875 C175.3492464 417.70572379 178.99198165 414.61208674 182.6328125 411.51342773 C186.03820213 408.62096483 189.4859611 405.79158032 192.96875 402.9921875 C198.34953436 398.61686358 203.40789283 393.93868616 208.47265625 389.20703125 C210.80015733 387.03619587 213.17166352 384.93264775 215.59375 382.8671875 C248.65260151 354.12338608 265.643407 317.76643109 268.953125 274.55737305 C273.0647451 212.51243264 258.5541751 164.0363369 220.46875 115.4296875 C218.90813066 113.4357636 217.3481307 111.44143456 215.79345703 109.44287109 C214.56624808 107.86735736 213.33036503 106.29861051 212.09375 104.73046875 C210.46875 102.4296875 210.46875 102.4296875 210.46875 100.4296875 C280.38145069 111.06923821 354.66468086 139.97426219 407.1953125 188.33984375 C409.31505212 190.28840165 411.47358469 192.17726083 413.65625 194.0546875 C438.89094147 216.16027723 458.75805539 247.9699542 461.33984375 281.97265625 C461.40365234 283.18888672 461.40365234 283.18888672 461.46875 284.4296875 C461.52160156 285.29207031 461.57445312 286.15445312 461.62890625 287.04296875 C462.70987409 321.02295795 446.32708758 352.47743082 424.46875 377.4296875 C423.4478125 378.61498047 423.4478125 378.61498047 422.40625 379.82421875 C413.15971498 390.3455518 403.52327965 401.12060617 391.46875 408.4296875 C389.95474609 409.39261719 389.95474609 409.39261719 388.41015625 410.375 C369.31646971 421.98572731 347.52741668 427.22198389 325.5234375 429.94921875 C324.49897018 430.07647842 323.47450287 430.2037381 322.41899109 430.33485413 C310.95958364 431.69575273 299.46616041 432.42057123 287.95175171 433.13619995 C229.87431337 436.79105866 184.83849156 445.31069134 141.36328125 485.7578125 C138.8109961 488.11376802 136.21298754 490.39910751 133.59375 492.6796875 C88.27936216 533.41906503 44.2775819 594.8290309 40.53881836 656.89111328 C40.41121699 658.97362401 40.27135116 661.05504472 40.13085938 663.13671875 C38.52305321 688.5771779 39.59720256 714.08773983 40.64739299 739.5277493 C40.81616354 743.64155431 40.97884171 747.75560155 41.14247131 751.86961365 C41.41670578 758.74144996 41.69551638 765.61308828 41.97729492 772.48461914 C42.30259236 780.4186844 42.62063846 788.35301613 42.934946 796.28752381 C43.23964419 803.97587371 43.54907456 811.6640259 43.86078072 819.35209465 C43.99263859 822.60592868 44.12289108 825.85982104 44.25184441 829.11377144 C44.4031227 832.92519464 44.55855734 836.73642614 44.71723366 840.54754829 C44.77471068 841.94392067 44.83076421 843.34035246 44.88529205 844.73684311 C44.95988668 846.64112931 45.04015267 848.54519083 45.12071228 850.44923401 C45.16403655 851.51403268 45.20736082 852.57883135 45.25199795 853.67589664 C45.4394823 856.05784736 45.7967479 858.14462788 46.46875 860.4296875 C49.81127724 860.50396588 52.2723414 860.49515703 55.46875 859.4296875 C55.49745178 858.87212265 55.52615356 858.3145578 55.5557251 857.74009705 C60.37611977 764.82269217 78.7689057 672.92901241 149.98730469 607.23583984 C204.27566775 558.35861997 275.18510545 544.64749837 346.0703125 547.671875 C363.58438045 548.6484036 381.01851458 550.89562829 398.44451904 552.8380127 C424.79434152 555.7685668 450.92328225 558.03690551 477.46875 557.4296875 C478.768125 557.40865967 478.768125 557.40865967 480.09375 557.38720703 C512.40678211 556.78995777 545.46495832 547.11721728 571.46875 527.4296875 C572.01789063 527.02282715 572.56703125 526.6159668 573.1328125 526.19677734 C593.54851696 511.0255256 610.93132011 491.9330618 616.46875 466.4296875 C616.77425781 465.10324219 616.77425781 465.10324219 617.0859375 463.75 C617.56416991 461.64708762 618.01924013 459.53892613 618.46875 457.4296875 C642.69894571 475.86570598 654.9206276 510.3421081 659.71875 539.3046875 C664.1583561 572.35043479 660.95206364 609.62198476 640.09375 637.0546875 C638.89603674 638.52175549 637.68755157 639.98009159 636.46875 641.4296875 C635.86289063 642.18121094 635.25703125 642.93273437 634.6328125 643.70703125 C621.05916938 659.91229905 601.00618793 668.40402017 580.46875 671.4296875 C564.09547809 672.39924636 547.79718593 672.85618063 532.46875 666.4296875 C531.13321655 665.91561573 529.79726953 665.40261727 528.4609375 664.890625 C508.39898323 656.9121791 491.05174996 643.37356398 474.97241211 629.2199707 C469.23122666 624.17537335 463.30818841 619.41157482 457.23242188 614.77685547 C456.04768832 613.87190533 454.8667353 612.96198618 453.68945312 612.04736328 C436.51757918 598.73030469 418.14305248 589.48836374 397.34375 583.2421875 C396.57635498 583.0040332 395.80895996 582.76587891 395.01831055 582.52050781 C375.29391245 576.8742182 355.04272004 576.95011403 334.71582031 577.03857422 C330.7844151 577.05554693 326.85362471 577.04557655 322.92224121 577.02825165 C264.83034601 576.81142006 209.75696953 586.84365194 166.16015625 627.94921875 C163.46875 630.4296875 163.46875 630.4296875 160.8125 632.5390625 C158.73455937 634.21526794 157.10990075 635.82734967 155.40625 637.8671875 C152.78531753 640.95431621 150.0630231 643.90183466 147.25390625 646.81860352 C116.85546578 678.7205292 105.58961652 721.98945146 97.46875 764.1171875 C97.26088867 765.17212402 97.05302734 766.22706055 96.83886719 767.31396484 C95.20702638 776.28337353 94.40719209 785.46912606 96.46875 794.4296875 C98.84108611 794.39188452 98.84108611 794.39188452 101.46875 793.4296875 C105.49007246 788.31240714 107.80709271 782.41763878 110.40625 776.4921875 C129.59256722 733.72754408 157.87626926 692.43372959 202.8671875 674.47216797 C216.10250803 669.44449851 229.47767546 666.4366361 243.46875 664.4296875 C244.26458496 664.31254395 245.06041992 664.19540039 245.88037109 664.07470703 C307.94421462 655.27938871 359.3772978 682.3934137 407.87402344 718.37133789 C415.31928707 723.98466193 422.50063736 729.911593 429.64257812 735.90332031 C432.1488975 737.99817442 434.68315069 740.0579291 437.21875 742.1171875 C449.35411248 752.03780057 461.20432699 762.3083414 473.078125 772.5390625 C479.14397272 777.76064325 485.23768029 782.93362007 491.45703125 787.97265625 C493.73971492 789.83492347 496.00504468 791.71214324 498.26171875 793.60546875 C530.67242369 820.72361327 569.82591813 851.50578369 614.46875 848.4296875 C643.71132477 845.6329983 667.15795957 833.32912487 686.09375 810.9296875 C687.02557804 809.7960269 687.95537865 808.66069574 688.8828125 807.5234375 C691.24606837 804.63242956 693.7858292 802.02543758 696.46875 799.4296875 C697.41733101 839.7443803 694.95097639 893.34553764 665.96875 924.8671875 C664.16343424 926.75281416 662.32343355 928.59149003 660.46875 930.4296875 C659.83582031 931.09613281 659.20289063 931.76257813 658.55078125 932.44921875 C643.4204659 947.24553155 619.67830694 951.21653101 599.40625 951.7421875 C571.34438138 951.20069855 549.00440099 935.26090241 530.0234375 915.98046875 C510.23736351 895.35428327 494.43262101 871.14893187 479.60913086 846.8347168 C467.24100106 826.56702718 453.66528737 807.67561297 438.46875 789.4296875 C437.68113281 788.45515625 436.89351562 787.480625 436.08203125 786.4765625 C429.32443349 778.24030318 421.91562503 770.66146101 414.40625 763.1171875 C413.64633255 762.34950546 413.64633255 762.34950546 412.87106323 761.5663147 C406.83405558 755.48074646 400.67872441 749.76197988 393.96191406 744.41479492 C391.35913842 742.34241256 388.81912677 740.2058209 386.28125 738.0546875 C379.33053106 732.37942054 371.96835433 727.34530233 364.46875 722.4296875 C363.8711084 722.0378125 363.2734668 721.6459375 362.65771484 721.2421875 C336.77964212 704.50823309 305.63374865 691.47578536 274.46875 690.4296875 C273.24800781 690.378125 272.02726563 690.3265625 270.76953125 690.2734375 C234.1148093 689.209141 199.31972249 703.47352592 172.6328125 728.421875 C170.77749922 730.14323065 168.88154126 731.72625841 166.90625 733.3046875 C162.0924663 737.40990024 158.35747423 742.47172322 154.46875 747.4296875 C153.65019531 748.44417969 152.83164062 749.45867188 151.98828125 750.50390625 C107.29818419 806.43379273 92.21919591 892.0985767 98.9375 962.14453125 C101.26569985 981.05115181 107.9069896 1001.49884426 122.46875 1014.4296875 C134.16989356 1021.90398625 147.3254968 1021.75724506 160.6796875 1019.18359375 C168.22002094 1017.14538037 174.18983491 1014.04255628 178.46875 1007.4296875 C182.69362969 998.37382724 182.66603731 989.58794647 182.65625 979.7421875 C182.6569751 978.99825745 182.6577002 978.25432739 182.65844727 977.487854 C182.65669923 960.85307647 181.96115409 944.24806293 181.18041992 927.6340332 C180.28591821 908.18113746 179.84456018 888.68366212 181.21875 869.2421875 C181.30672852 867.99026611 181.39470703 866.73834473 181.48535156 865.44848633 C183.23841959 842.7960124 186.50085287 816.46039938 203.84375 799.9921875 C215.51474791 790.25638069 228.97251037 790.49596066 243.46875 791.4296875 C255.43654247 792.94982177 265.33679137 798.93137355 272.9375 808.19921875 C280.2082697 818.79005931 282.65867096 830.75780195 281.46875 843.4296875 C279.18732915 854.02527965 271.59513321 861.62981613 262.78125 867.4296875 C255.2101031 872.09575729 248.27615023 873.37204308 239.46875 872.4296875 C235.01301596 870.55358896 233.85400986 869.24321297 231.7890625 864.8828125 C230.06522013 860.04086777 230.40334261 855.72460098 230.90625 850.6796875 C231.06104549 849.01915402 231.20595434 847.35766225 231.33984375 845.6953125 C231.41130615 844.97118164 231.48276855 844.24705078 231.55639648 843.50097656 C231.45074843 841.00426884 230.77322605 839.54443783 229.46875 837.4296875 C226.24919012 835.13000187 223.34315468 834.87620112 219.46875 835.4296875 C215.33036954 838.62752695 213.79315829 841.44796825 212.46875 846.4296875 C211.81280062 863.26572156 219.89187442 877.16042001 228.5324707 890.94262695 C250.66151146 926.37241361 255.20239251 970.78185626 248.34375 1011.6796875 C245.40418808 1024.24093746 239.27520008 1035.54294152 228.65625 1043.0546875 C224.06840923 1045.81359175 219.49663231 1047.67928337 214.40625 1049.2421875 C213.78967529 1049.43699707 213.17310059 1049.63180664 212.5378418 1049.83251953 C198.95689284 1053.63525225 184.42851089 1053.71022118 170.43706512 1053.51888657 C167.74336067 1053.48325372 165.04990617 1053.46324955 162.35601807 1053.447052 C154.71204112 1053.39885741 147.06840905 1053.32706181 139.42480469 1053.23779297 C134.7097007 1053.18379446 129.99478316 1053.1500055 125.27942657 1053.12805557 C123.5046314 1053.11578216 121.72986933 1053.09596097 119.9552536 1053.0678978 C104.27943379 1052.82188574 89.27971924 1054.39017909 77.18359375 1065.53515625 C69.63334846 1073.49648568 67.85249329 1079.96756657 68.12109375 1090.8984375 C69.30743293 1102.94844443 75.86227364 1112.96682966 84.98828125 1120.640625 C95.50681656 1128.22722212 107.29313969 1130.23792985 120.00390625 1129.0234375 C127.12815043 1127.80259746 133.19933369 1124.57440959 139.59765625 1121.35546875 C140.31131348 1120.99654541 141.0249707 1120.63762207 141.76025391 1120.26782227 C143.16165315 1119.55723792 144.55871986 1118.83802517 145.95068359 1118.10913086 C154.7536948 1113.56446896 164.34115591 1113.04499092 173.90625 1115.6796875 C178.37596966 1117.2078581 181.92927541 1119.04900001 184.5625 1123.12109375 C187.02808298 1129.40195384 186.38023015 1137.50758936 184.40625 1143.8359375 C178.52873234 1156.48537767 168.00941347 1162.42378855 155.46875 1167.4296875 C137.49158069 1173.79422656 118.09178589 1175.66087445 99.14355469 1176.05175781 C93.88662643 1176.18510612 89.45238268 1176.72277617 84.46875 1178.4296875 C84.46875 1181.14116165 84.93360619 1182.86832628 86.82421875 1184.8515625 C98.6632056 1194.24197424 113.20525299 1199.37103123 128.03125 1201.3671875 C131.85414571 1201.96004298 133.4644436 1202.42684365 136.78125 1204.6171875 C138.46875 1207.4296875 138.46875 1207.4296875 138.46875 1211.0546875 C137.12466398 1215.59097782 137.12466398 1215.59097782 134.46875 1217.4296875 C120.3297914 1222.1426737 99.58676938 1216.33598021 86.46875 1210.4296875 C65.36830366 1199.70362728 54.15670422 1182.32369293 46.66796875 1160.31640625 C40.0322366 1139.44020022 35.70613357 1117.53109861 31.62280273 1096.02612305 C31.49198303 1095.34308609 31.36116333 1094.66004913 31.22637939 1093.95631409 C30.88206361 1092.14027071 30.54743578 1090.32239783 30.21362305 1088.50439453 C28.68614604 1082.19923381 26.06362229 1078.08576453 20.5859375 1074.58984375 C9.70715646 1068.9098905 -2.97693492 1067.34932812 -14.96875 1070.5546875 C-22.63112985 1073.33278475 -27.98576998 1076.70565396 -31.56604004 1084.07875061 C-33.25489123 1088.19224169 -34.03638973 1092.44199189 -34.86328125 1096.796875 C-35.06053299 1097.78119003 -35.25778473 1098.76550507 -35.46101379 1099.77964783 C-35.88045805 1101.87342959 -36.29538767 1103.96812013 -36.70611572 1106.06362915 C-37.77679442 1111.50582736 -38.89329415 1116.93853723 -40.01171875 1122.37109375 C-40.33879822 1123.96140663 -40.33879822 1123.96140663 -40.67248535 1125.58384705 C-46.51438621 1153.78797975 -53.75147989 1186.0507164 -78.28125 1204.1796875 C-91.39034395 1212.73785175 -106.84326945 1217.72682099 -122.53125 1218.4296875 C-123.51867187 1218.49285156 -124.50609375 1218.55601563 -125.5234375 1218.62109375 C-134.49640029 1218.96114491 -134.49640029 1218.96114491 -138.21875 1216.8046875 C-141.01797108 1213.92981179 -141.53125 1212.41734993 -141.53125 1208.4296875 C-141.03125 1206.2421875 -141.03125 1206.2421875 -139.53125 1204.4296875 C-134.6821665 1202.05363659 -130.40699244 1200.92027097 -125.03125 1200.1171875 C-112.45974539 1197.98348502 -97.41271304 1193.17881327 -88.734375 1183.40625 C-87.27127653 1181.38824456 -87.27127653 1181.38824456 -87.53125 1178.4296875 C-93.44921493 1176.40276416 -98.86955496 1176.12058652 -105.09375 1175.9921875 C-130.46792038 1175.13852268 -160.90191802 1172.44412408 -180.53125 1154.4296875 C-182.359375 1152.18359375 -182.359375 1152.18359375 -183.78125 1149.9921875 C-184.26078125 1149.27160156 -184.7403125 1148.55101562 -185.234375 1147.80859375 C-187.92377086 1142.87533447 -188.82393632 1138.4612498 -188.84375 1132.8671875 C-188.86050781 1131.77277344 -188.87726563 1130.67835937 -188.89453125 1129.55078125 C-188.36902437 1125.03594254 -186.57283112 1122.47126862 -183.40625 1119.3046875 C-175.2860048 1114.00887541 -166.60371659 1113.35494993 -157.140625 1114.79296875 C-151.34853389 1116.24099153 -146.40598715 1119.07279077 -141.21875 1121.9296875 C-128.38407594 1128.93156709 -115.61833537 1131.68830393 -101.1953125 1127.44921875 C-88.33765276 1122.44541918 -79.44174964 1114.13099138 -73.4765625 1101.7265625 C-70.36490327 1094.16600206 -70.04383849 1084.1477568 -72.5078125 1076.33203125 C-73.70645828 1073.8942946 -75.00617878 1071.67505475 -76.53125 1069.4296875 C-77.3665625 1068.0684375 -77.3665625 1068.0684375 -78.21875 1066.6796875 C-87.82467778 1057.33337939 -101.41198277 1053.22839176 -114.52416992 1053.34790039 C-115.71084511 1053.35250023 -115.71084511 1053.35250023 -116.92149353 1053.35719299 C-118.6364004 1053.36433239 -120.35129908 1053.37371417 -122.06618309 1053.38508797 C-124.79773376 1053.4025743 -127.52922502 1053.41281088 -130.26081848 1053.42100525 C-138.02704498 1053.44535148 -145.79319273 1053.48054245 -153.55932617 1053.52563477 C-158.31783325 1053.55275284 -163.07629324 1053.56957926 -167.83486366 1053.58050346 C-169.63141923 1053.58662912 -171.42796676 1053.59652443 -173.22447777 1053.61058235 C-182.28475424 1053.6807534 -191.23193044 1053.53284313 -200.24731445 1052.56030273 C-200.95782298 1052.484553 -201.66833151 1052.40880327 -202.4003706 1052.33075809 C-216.76925405 1050.59476933 -230.6291883 1045.45081354 -240.71484375 1034.75390625 C-250.50235798 1022.23009772 -252.66133982 1006.75543297 -252.734375 991.359375 C-252.74007507 990.40185333 -252.74577515 989.44433167 -252.75164795 988.45779419 C-252.76105776 986.43232308 -252.76761586 984.40683693 -252.77148438 982.38134766 C-252.78106805 979.362011 -252.81207861 976.34339254 -252.84375 973.32421875 C-253.03044555 939.3727214 -245.0975556 912.46985875 -227.12353516 883.95019531 C-219.8818217 872.35576119 -213.83471502 859.4978776 -215.53125 845.4296875 C-216.46479057 841.92039265 -217.83481339 839.17415422 -220.34375 836.4921875 C-223.3416391 835.03606994 -225.23284091 834.9584862 -228.53125 835.4296875 C-231.91927055 837.38721048 -233.25947646 838.5367173 -234.40625 842.3046875 C-234.53578269 845.54300487 -234.08334676 848.23979509 -233.53125 851.4296875 C-233.05088789 857.86653984 -233.25803623 862.78621549 -236.53125 868.4296875 C-240.2229222 872.01773381 -242.58913103 872.97967161 -247.71875 872.9296875 C-259.85122571 872.49248117 -268.39629505 866.9336623 -276.609375 858.2265625 C-282.41867628 851.24563744 -285.14204679 844.28199768 -284.81640625 835.1640625 C-283.47628041 822.31354078 -279.31237798 810.24407609 -269.53125 801.4296875 C-255.43029076 791.26870216 -240.39833802 790.32705148 -223.53125 791.4296875 C-213.73000965 793.03254228 -206.93064104 799.0848133 -200.75 806.59375 C-191.55845943 819.49004417 -188.10326479 835.46459444 -185.84375 850.8671875 C-185.72435059 851.67599365 -185.60495117 852.4847998 -185.48193359 853.31811523 C-183.55735276 867.4795208 -183.33130845 881.72552552 -183.34375 895.9921875 C-183.3430249 896.85620178 -183.3422998 897.72021606 -183.34155273 898.6104126 C-183.34289119 913.36256463 -183.84585457 928.07001989 -184.53125 942.8046875 C-185.43397573 961.92211267 -185.43397573 961.92211267 -185.84375 981.0546875 C-185.86115234 982.05290527 -185.87855469 983.05112305 -185.89648438 984.07958984 C-185.88991481 993.58739547 -184.78269153 1004.32327893 -178.37890625 1011.78125 C-168.77795967 1020.34699938 -155.41528237 1020.95150861 -143.1484375 1020.73828125 C-132.70019084 1019.84690815 -125.75515634 1015.28602802 -118.91796875 1007.62109375 C-112.4378117 999.56694506 -108.56304526 990.36051486 -105.78125 980.4921875 C-105.58265381 979.78980957 -105.38405762 979.08743164 -105.17944336 978.36376953 C-101.72101521 965.32690246 -101.19775001 952.5742165 -101.28125 939.1796875 C-101.28435181 938.29607544 -101.28745361 937.41246338 -101.29064941 936.5020752 C-101.34993705 922.06911851 -101.82243807 907.77349197 -103.53125 893.4296875 C-103.66015625 892.33366211 -103.7890625 891.23763672 -103.921875 890.10839844 C-106.88669547 865.73784867 -111.77680082 841.74214492 -119.53125 818.4296875 C-119.7792334 817.67381348 -120.0272168 816.91793945 -120.28271484 816.13916016 C-127.20600906 795.34259814 -136.75099587 775.26570895 -149.53125 757.4296875 C-149.94584473 756.84832031 -150.36043945 756.26695312 -150.78759766 755.66796875 C-173.9301192 723.60048745 -208.02669636 698.55440368 -247.60913086 691.88720703 C-294.6223414 684.93724133 -339.66826942 702.44288926 -377.53125 729.4296875 C-378.23652832 729.93145508 -378.94180664 730.43322266 -379.66845703 730.95019531 C-387.785112 736.77321652 -395.43867019 742.88599047 -402.6875 749.76171875 C-404.87991219 751.81861096 -407.09618631 753.79580539 -409.37109375 755.7578125 C-413.62189616 759.45806825 -417.62147031 763.37179076 -421.59375 767.3671875 C-422.26212891 768.03169922 -422.93050781 768.69621094 -423.61914062 769.38085938 C-428.12833606 773.89881904 -432.37611301 778.5859667 -436.53125 783.4296875 C-437.376875 784.39390625 -438.2225 785.358125 -439.09375 786.3515625 C-456.29584423 806.3104026 -470.87564705 828.11877485 -484.63500977 850.54345703 C-499.56306275 874.78938397 -516.01972328 897.6593526 -535.53125 918.4296875 C-536.11261719 919.06519531 -536.69398438 919.70070313 -537.29296875 920.35546875 C-553.20434044 937.14857892 -575.25543265 950.35992045 -598.71484375 951.59765625 C-622.6915242 951.7415739 -645.19708376 946.68042576 -663.53125 930.4296875 C-664.14484375 929.91019531 -664.7584375 929.39070312 -665.390625 928.85546875 C-694.0369839 902.77151351 -697.51988989 854.32049313 -699.32666016 818.40991211 C-699.59529015 812.08360074 -699.63191061 805.76012153 -699.53125 799.4296875 C-698.87125 799.4296875 -698.21125 799.4296875 -697.53125 799.4296875 C-696.08031731 801.24106241 -694.69785352 803.10732984 -693.34375 804.9921875 C-675.4987784 828.86851373 -653.2255016 842.95558054 -623.7578125 847.89453125 C-621.34014471 848.18770359 -618.96506736 848.3406454 -616.53125 848.4296875 C-615.4175 848.48125 -614.30375 848.5328125 -613.15625 848.5859375 C-584.957656 849.29090235 -559.03322841 836.57853431 -536.53125 820.4296875 C-535.41872666 819.65255969 -534.30540526 818.87657348 -533.19140625 818.1015625 C-514.3092769 804.88512359 -496.6681996 789.9539814 -479.23730469 774.90185547 C-476.31967742 772.38421202 -473.39438862 769.87551258 -470.46875 767.3671875 C-469.88915527 766.87017334 -469.30956055 766.37315918 -468.71240234 765.86108398 C-463.74016394 761.60105503 -458.74646973 757.36684698 -453.7421875 753.14453125 C-451.59481373 751.33199114 -449.45483973 749.51124214 -447.3203125 747.68359375 C-440.17546589 741.57677612 -432.88677979 735.69415031 -425.46044922 729.93359375 C-423.4144059 728.33860174 -421.3805084 726.72895217 -419.34765625 725.1171875 C-370.10230198 686.20639851 -316.8400119 656.4327816 -252.34375 663.6171875 C-217.25344306 667.92597267 -187.47252992 678.9535297 -161.53125 703.4296875 C-160.46003906 704.40421875 -160.46003906 704.40421875 -159.3671875 705.3984375 C-137.6269939 725.95280236 -123.99416078 754.17931989 -110.97265625 780.60546875 C-110.60495117 781.35030518 -110.23724609 782.0951416 -109.85839844 782.86254883 C-109.20759121 784.18843544 -108.56312364 785.51746375 -107.92675781 786.8503418 C-106.46749693 789.84857464 -105.09567401 792.26038623 -102.53125 794.4296875 C-101.54125 794.0996875 -100.55125 793.7696875 -99.53125 793.4296875 C-95.86493238 782.43073465 -99.31485342 769.13023432 -101.59375 758.1171875 C-101.7511969 757.33621704 -101.9086438 756.55524658 -102.07086182 755.75061035 C-110.31567523 714.86007637 -122.36866723 675.84957785 -151.87109375 645.20703125 C-153.98228132 643.00283983 -155.96002665 640.77588657 -157.90625 638.4296875 C-192.75437966 598.45930263 -242.85211279 581.30636356 -294.39252853 577.56188965 C-305.68130983 576.86408904 -317.0222179 576.98871808 -328.32714844 577.03857422 C-332.26774805 577.05578476 -336.2077451 577.04541045 -340.14832497 577.02825832 C-360.40624591 576.95333003 -380.5982217 577.12400391 -400.15625 583.1171875 C-401.43653076 583.49846802 -401.43653076 583.49846802 -402.74267578 583.88745117 C-428.46416256 591.8106936 -449.81559818 605.66363373 -470.02587891 623.13769531 C-474.1230343 626.65409919 -478.33747181 630.02993131 -482.53125 633.4296875 C-483.69543329 634.38787409 -484.85948883 635.34621592 -486.0234375 636.3046875 C-494.50820795 643.24809147 -503.18607776 649.68583758 -512.53125 655.4296875 C-513.1180957 655.79046387 -513.70494141 656.15124023 -514.30957031 656.52294922 C-525.03388747 662.97359922 -536.55754845 666.91571086 -548.53125 670.4296875 C-549.14830811 670.61756836 -549.76536621 670.80544922 -550.40112305 670.99902344 C-574.15681748 675.80189392 -602.05280609 670.45612934 -622.09375 657.3671875 C-641.31504556 643.36677977 -652.40121282 625.51355059 -659.28125 602.8671875 C-659.48008789 602.21967529 -659.67892578 601.57216309 -659.88378906 600.9050293 C-663.2696918 589.1342259 -663.94306477 577.22503664 -663.90625 565.0546875 C-663.9050415 564.31124084 -663.90383301 563.56779419 -663.90258789 562.80181885 C-663.73189602 523.89135823 -650.42440911 488.09316065 -624.34375 459.125 C-622.53125 457.4296875 -622.53125 457.4296875 -620.53125 457.4296875 C-620.37269531 458.44546875 -620.21414063 459.46125 -620.05078125 460.5078125 C-618.58307296 469.37900506 -616.58371951 477.32474848 -612.53125 485.4296875 C-612.05042969 486.39132812 -611.56960938 487.35296875 -611.07421875 488.34375 C-593.65900821 520.46231348 -558.61163404 540.93071282 -524.66430664 551.43115234 C-509.75132479 555.83051963 -495.029098 557.09776857 -479.53125 557.4296875 C-478.65291504 557.45160156 -477.77458008 557.47351563 -476.86962891 557.49609375 C-450.16481208 558.08376623 -423.77203226 555.44617786 -397.28125 552.4296875 C-315.78733399 543.16956575 -231.81412626 544.49984064 -164.42919922 597.90625 C-150.08212069 609.42229966 -136.8336495 621.86538227 -125.53125 636.4296875 C-124.768125 637.36425781 -124.005 638.29882812 -123.21875 639.26171875 C-86.90618553 684.59423112 -70.26834272 741.79070558 -62.53125 798.4296875 C-62.40766113 799.33396484 -62.28407227 800.23824219 -62.15673828 801.16992188 C-60.98357633 810.16231019 -60.48423229 819.15525128 -60.11328125 828.2109375 C-60.03613796 829.99666715 -59.95890722 831.78239303 -59.8815918 833.56811523 C-59.72735318 837.15056798 -59.60156953 840.73259712 -59.49145508 844.31665039 C-59.42479682 845.98066399 -59.3573658 847.64464686 -59.2890625 849.30859375 C-59.27232986 850.08267578 -59.25559723 850.85675781 -59.23835754 851.65429688 C-59.08225521 855.0064584 -58.9856513 856.94146287 -56.65185547 859.44897461 C-53.86383252 860.73834695 -52.39331154 860.43527669 -49.53125 859.4296875 C-48.01519421 856.39757591 -48.21345896 853.19845197 -48.07080078 849.86401367 C-48.0150419 848.68252841 -48.0150419 848.68252841 -47.95815659 847.47717476 C-47.83464555 844.8300268 -47.71796713 842.1826256 -47.6015625 839.53515625 C-47.51562314 837.64860493 -47.42944643 835.76206441 -47.3430481 833.87553406 C-47.06394392 827.72728239 -46.79630767 821.57855893 -46.53125 815.4296875 C-46.48681259 814.40121956 -46.44237518 813.37275162 -46.39659119 812.31311798 C-45.79453531 798.34220683 -45.22376271 784.3701745 -44.67138672 770.3972168 C-44.49541902 765.95497009 -44.31488803 761.5129446 -44.13037109 757.07104492 C-43.21439769 734.98423066 -42.35519575 712.91357072 -42.3671875 690.8046875 C-42.36707987 689.64575957 -42.36707987 689.64575957 -42.36697006 688.46341896 C-42.4090604 652.30906904 -46.21281524 620.65716911 -63.53125 588.4296875 C-63.91684082 587.70394531 -64.30243164 586.97820313 -64.69970703 586.23046875 C-85.72830153 546.8029144 -116.17551533 508.10542109 -150.53125 479.4296875 C-151.08022949 478.96691406 -151.62920898 478.50414062 -152.19482422 478.02734375 C-193.42109433 443.37869965 -237.89494254 436.4571812 -290.36999512 433.11901855 C-352.74316232 429.14788509 -352.74316232 429.14788509 -379.53125 416.4296875 C-380.14613281 416.13868164 -380.76101563 415.84767578 -381.39453125 415.54785156 C-402.04924156 405.60961264 -418.77264643 389.60711265 -432.53125 371.4296875 C-432.96244141 370.86958984 -433.39363281 370.30949219 -433.83789062 369.73242188 C-455.72077945 341.23875824 -467.46670437 309.9131163 -463.20166016 273.62548828 C-462.38109991 268.43526981 -461.12134771 263.4342831 -459.53125 258.4296875 C-459.180625 257.31335938 -458.83 256.19703125 -458.46875 255.046875 C-451.79306587 236.17879554 -440.7678498 219.54870402 -427.0625 205.11328125 C-424.91191547 202.83326339 -422.86511276 200.51066476 -420.84375 198.1171875 C-417.38631235 194.14723556 -413.55248614 190.8145664 -409.53125 187.4296875 C-408.64179688 186.64078125 -407.75234375 185.851875 -406.8359375 185.0390625 C-356.27067976 140.50437095 -280.77613288 107.55068593 -213.53125 100.4296875 C-215.02711843 105.09224815 -217.75214866 108.42018249 -220.84375 112.1171875 C-244.80023009 141.48731407 -263.72873465 172.51308527 -269.53125 210.4296875 C-269.79941528 212.17113037 -269.79941528 212.17113037 -270.07299805 213.94775391 C-271.73866599 225.72697728 -271.87050725 237.46733938 -271.84692383 249.34814453 C-271.84376798 252.66081836 -271.86730074 255.97259221 -271.89257812 259.28515625 C-272.03906444 308.33206095 -255.85204245 345.89497141 -221.53125 380.4296875 C-213.82810141 387.98138277 -205.54419908 394.9203111 -197.32666016 401.90039062 C-195.5184777 403.4405667 -193.71717242 404.98841062 -191.91796875 406.5390625 C-185.7798898 411.82748495 -179.59871021 417.04451056 -173.30859375 422.15234375 C-169.62649075 425.17156464 -166.00062107 428.25470695 -162.37353516 431.33959961 C-158.89862521 434.28940058 -155.38662977 437.18640402 -151.84375 440.0546875 C-148.37043224 442.87738378 -145.01466921 445.77716562 -141.71875 448.8046875 C-137.85074764 452.32995548 -133.84961374 455.59850911 -129.71875 458.8046875 C-122.8217815 464.15867855 -116.13461137 469.71820871 -109.53125 475.4296875 C-108.70367188 476.14382813 -107.87609375 476.85796875 -107.0234375 477.59375 C-95.61901032 487.64319574 -84.81737829 498.38188537 -75.53125 510.4296875 C-74.73460937 511.43257812 -73.93796875 512.43546875 -73.1171875 513.46875 C-66.78508781 521.48793188 -61.09107707 529.86251014 -55.53125 538.4296875 C-54.81066406 539.52667969 -54.09007812 540.62367188 -53.34765625 541.75390625 C-48.53125 549.16748931 -48.53125 549.16748931 -48.53125 551.4296875 C-47.87125 551.4296875 -47.21125 551.4296875 -46.53125 551.4296875 C-42.06751711 461.08529094 -42.06751711 461.08529094 -70.55078125 380.234375 C-76.29461764 374.97007968 -80.34946096 374.29747375 -88.05859375 374.18359375 C-89.57788816 374.15228929 -91.09717505 374.12061817 -92.61645508 374.08862305 C-93.40887604 374.07326508 -94.201297 374.0579071 -95.01773071 374.04208374 C-137.31867509 373.18094891 -186.17461171 370.01303808 -217.34375 337.6796875 C-241.07918049 309.80688839 -240.28427659 270.57836167 -237.78125 236.1171875 C-233.67134547 185.79821861 -213.69792264 138.88409009 -175.1328125 105.34375 C-172.84291884 103.43894356 -170.5299292 101.57069017 -168.1875 99.73095703 C-167.01748083 98.81170553 -165.85115841 97.88773951 -164.6875 96.96044922 C-136.10155258 74.22356098 -103.1866568 57.55061923 -70.84375 40.8671875 C-36.29447358 23.26989945 -36.29447358 23.26989945 -4.90625 0.74609375 C-2.53125 -0.5703125 -2.53125 -0.5703125 0 0 Z M-76.15625 124.4921875 C-98.86731151 148.89160131 -104.681322 187.01306883 -104.77148438 219.03198242 C-104.78115362 221.0966073 -104.81226637 223.16021795 -104.84375 225.22460938 C-105.08122495 254.87959802 -91.58659424 282.81722019 -71.6171875 304.328125 C-69.05288719 306.91163355 -66.4151633 309.21129265 -63.53125 311.4296875 C-63.71300781 310.77411865 -63.89476562 310.1185498 -64.08203125 309.44311523 C-70.77099052 285.14204045 -76.60700677 260.59977851 -76.734375 235.26953125 C-76.74143463 234.3302478 -76.74849426 233.39096436 -76.75576782 232.42321777 C-76.98317174 193.26450472 -76.98317174 193.26450472 -73.53125 174.4296875 C-73.22525879 172.71023926 -73.22525879 172.71023926 -72.91308594 170.95605469 C-70.2544032 156.33136464 -66.86448735 142.16592735 -62.046875 128.1015625 C-60.52077848 123.59863574 -59.48494681 119.08597191 -58.53125 114.4296875 C-64.97358465 114.4296875 -71.53277716 120.23772423 -76.15625 124.4921875 Z M55.46875 114.4296875 C56.88790513 119.8084844 58.34370861 125.15980091 60.08203125 130.4453125 C67.03627294 151.71256668 71.6818679 174.10526441 73.46875 196.4296875 C73.52369629 197.11063477 73.57864258 197.79158203 73.63525391 198.49316406 C76.2933646 232.72712065 72.8786626 266.58642177 63.73828125 299.65625 C62.7572388 303.22860729 61.97556932 306.75372088 61.46875 310.4296875 C65.70707485 308.20019166 68.62702952 305.38274976 71.65625 301.7421875 C72.1311084 301.17258301 72.6059668 300.60297852 73.09521484 300.01611328 C88.52808994 281.03874779 101.51764809 256.38241204 101.671875 231.5234375 C101.67888931 230.77001068 101.68590363 230.01658386 101.69313049 229.24032593 C101.71063172 226.80338565 101.7169886 224.36668844 101.71875 221.9296875 C101.71942474 221.09777893 101.72009949 220.26587036 101.72079468 219.40875244 C101.67867583 186.73318831 96.23794563 149.26417963 72.70703125 124.5546875 C65.13981863 117.25576722 65.13981863 117.25576722 55.46875 114.4296875 Z M-7.03808594 378.92724609 C-24.0177909 396.01244955 -21.68284283 430.09787074 -21.78125 451.9921875 C-21.7905957 453.24757324 -21.79994141 454.50295898 -21.80957031 455.79638672 C-21.72485841 482.15156322 -18.96175553 508.38801855 -16.13241577 534.55969238 C-13.340948 560.39683445 -10.68693424 586.188603 -9.45532227 612.15673828 C-8.93419786 626.71272359 -8.93419786 626.71272359 -2.53125 639.4296875 C-0.01500815 638.45759302 1.2428083 637.79135677 2.69042969 635.47412109 C5.75772513 627.33617333 6.21722939 619.35253196 6.5954895 610.76831055 C7.75466903 585.24856723 10.57747392 559.89610275 13.33656502 534.5120182 C16.20379231 508.10681906 18.85268767 481.76544336 18.72949219 455.16943359 C18.71862535 452.39789553 18.72958307 449.62698961 18.7421875 446.85546875 C19.2082053 410.93255314 19.2082053 410.93255314 4.59765625 379.359375 C-0.44227841 374.85382011 -1.9401816 374.51494335 -7.03808594 378.92724609 Z M-33.78125 863.6171875 C-37.82646067 870.11841894 -38.62242934 876.37088363 -38.7421875 883.9453125 C-39.3512082 912.93770554 -42.56846109 937.97109725 -61.46313477 961.32446289 C-69.26553136 970.97767942 -74.962005 979.4757175 -74.78125 992.3046875 C-74.77375732 993.00722656 -74.76626465 993.70976563 -74.75854492 994.43359375 C-74.55767972 1004.14694112 -72.82144337 1011.67185273 -66.1171875 1018.96875 C-59.55330455 1024.97101729 -51.54828675 1024.81694281 -43.13671875 1024.67578125 C-37.07317603 1024.26190997 -33.33662713 1023.11197073 -28.78125 1018.8671875 C-19.50477238 1006.21744529 -19.45553671 988.86920151 -19.48828125 973.8828125 C-19.48966599 972.87364777 -19.49105072 971.86448303 -19.49247742 970.82473755 C-19.50087796 967.02636446 -19.51495757 963.22803309 -19.53125 959.4296875 C-19.53459351 958.64015938 -19.53793701 957.85063126 -19.54138184 957.03717804 C-19.59175176 945.54726603 -19.66633837 934.05769284 -19.7669754 922.56810951 C-19.81208194 917.38412481 -19.85134472 912.20023021 -19.87768555 907.01611328 C-19.90368208 901.93084933 -19.94399113 896.84588527 -19.99443626 891.76080704 C-20.01105005 889.8399538 -20.02259836 887.91904948 -20.02886391 885.99813461 C-20.03848652 883.32899836 -20.06650052 880.66064304 -20.09887695 877.99169922 C-20.09744186 877.20940948 -20.09600677 876.42711975 -20.0945282 875.62112427 C-20.19424937 869.80846124 -21.37541764 865.58551986 -25.53125 861.4296875 C-29.44640231 860.83390345 -30.88940316 860.80566974 -33.78125 863.6171875 Z M20.15625 863.6796875 C17.70802107 867.6693939 17.34390639 870.84453732 17.32830811 875.47932434 C17.32259796 876.49808655 17.31688782 877.51684875 17.31100464 878.56648254 C17.30988678 879.67867661 17.30876892 880.79087067 17.30761719 881.93676758 C17.30265228 883.11294647 17.29768738 884.28912537 17.29257202 885.50094604 C17.28047125 888.72682595 17.27300574 891.95266963 17.26856136 895.17856812 C17.26562355 897.20021671 17.26151714 899.22185972 17.25705719 901.24350548 C17.24337988 907.58614792 17.23371776 913.92877749 17.2298553 920.27143365 C17.22539186 927.55896093 17.20792533 934.84629903 17.1788547 942.13376886 C17.15710288 947.78584565 17.14714367 953.4378698 17.14581418 959.08998793 C17.14477453 962.4557374 17.13756328 965.82116902 17.12099457 969.18689919 C16.26471359 994.94120777 16.26471359 994.94120777 25.46875 1018.4296875 C31.02293671 1023.92017941 36.5844459 1024.57789678 44.21875 1024.6796875 C51.54816612 1024.61828925 57.05863781 1023.55153508 63.28125 1019.6796875 C71.24584634 1011.48753127 71.8883733 1001.34824608 71.83007812 990.51367188 C71.5374617 977.52755683 65.13609874 969.52129143 57.23046875 959.62890625 C40.01344198 937.65415188 36.27926189 913.70538719 35.99023438 886.2890625 C35.81568314 877.97872078 35.51391556 869.83992728 30.65625 862.8046875 C26.55521558 860.22689444 23.6417705 860.28837026 20.15625 863.6796875 Z " fill="#FFD200" transform="translate(699.53125,0.5703125)"/>
<path d="M0 0 C48.71330449 23.92086449 102.53121224 18.69567865 154.99072266 12.87695312 C156.14576294 12.74919998 157.30080322 12.62144684 158.49084473 12.48982239 C188.1693524 9.18620851 217.73433847 5.05708087 247.30712891 0.93164062 C277.91311666 -3.3379319 308.51272224 -7.57170403 339.22900391 -10.98242188 C340.31405716 -11.103629 341.39911041 -11.22483612 342.51704407 -11.34971619 C430.75833879 -21.14293107 515.61835134 -9.97820632 603.05712891 2.08740234 C657.32052424 9.70894547 657.32052424 9.70894547 711.80712891 15.43164062 C712.49111755 15.49009155 713.1751062 15.54854248 713.87982178 15.60876465 C774.29400195 20.71135611 817.89713329 12.3180171 871.52929688 -14.421875 C934.45335222 -45.77491685 934.45335222 -45.77491685 965.99462891 -36.94335938 C977.15720858 -32.80960406 986.01880447 -26.32834681 992.93212891 -16.56835938 C994.66563152 -10.62492185 993.52843698 -5.48627146 990.80712891 -0.00585938 C986.89495965 6.4765141 981.11199213 12.12068853 973.80712891 14.43164062 C969.11301055 15.06241278 965.12665756 15.10544249 960.86962891 12.93164062 C956.69986357 7.87737961 955.81492231 2.74924458 955.05712891 -3.56835938 C954.10676857 -9.8774742 951.67085155 -13.509959 946.80712891 -17.56835938 C943.71886017 -19.49852734 942.14127403 -19.56835938 938.49462891 -19.56835938 C931.58683522 -17.69505939 927.30624293 -13.80938637 923.49462891 -7.81835938 C917.7704257 2.67861272 915.81241738 13.75571789 918.53369141 25.59179688 C920.44852916 31.25068732 923.08518213 35.77920716 926.80712891 40.43164062 C925.25420626 44.67497703 922.08595742 46.95479769 918.61962891 49.61914062 C917.99596436 50.10036377 917.3722998 50.58158691 916.72973633 51.07739258 C864.21141522 90.8385456 790.60493988 88.36329403 728.6322937 80.01760864 C662.95530359 70.90240643 599.42492063 51.81615681 536.89306641 30.27929688 C535.93776031 29.95074203 534.98245422 29.62218719 533.99819946 29.28367615 C529.57936683 27.75798716 525.17219491 26.20889401 520.78466797 24.59521484 C520.0091861 24.31246201 519.23370422 24.02970917 518.4347229 23.73838806 C517.01604525 23.21883084 515.60017854 22.69149296 514.18807983 22.15431213 C510.2696657 20.72236944 506.97736973 19.99135928 502.80712891 20.43164062 C500.41338931 22.42658515 500.41338931 22.42658515 500.24462891 26.30664062 C500.57768492 37.29748915 509.79968014 46.0576137 516.69384766 53.86523438 C521.17029626 58.94649599 525.32170112 64.27073628 529.43505859 69.64746094 C530.35811263 70.84775967 531.2886154 72.04236299 532.22607422 73.23144531 C537.68227379 80.15304545 542.48095351 87.09498554 546.30712891 95.05664062 C546.77832153 96.02210815 546.77832153 96.02210815 547.2590332 97.00708008 C552.06970249 107.59898072 553.34582653 118.59465836 553.24462891 130.11914062 C553.23326904 131.95279175 553.23326904 131.95279175 553.22167969 133.82348633 C553.04106307 143.81870433 551.78154043 152.90628012 548.80712891 162.43164062 C548.59282227 163.14320313 548.37851562 163.85476563 548.15771484 164.58789062 C538.14334108 197.24028832 515.31257877 225.1280351 485.24853516 241.40820312 C450.85504936 258.5107689 406.96386726 259.36620402 370.80712891 247.43164062 C337.58754073 235.4176007 313.77579838 209.99070087 298.94506836 178.57519531 C288.12170786 154.73225763 284.5719693 126.60769893 292.76806641 101.48632812 C297.96183181 87.67312226 306.80728126 75.85996291 316.50634766 64.91357422 C320.06542187 60.85884816 323.43175433 56.63921962 326.80712891 52.43164062 C327.23445313 51.90006348 327.66177734 51.36848633 328.10205078 50.82080078 C337.66025733 39.40418729 337.66025733 39.40418729 341.80712891 25.43164062 C341.43853902 22.6629911 341.43853902 22.6629911 340.80712891 20.43164062 C333.81401208 19.96903091 328.49121925 21.57080117 321.95166016 23.94726562 C320.90972504 24.31421036 319.86778992 24.68115509 318.79428101 25.05921936 C316.56074514 25.84689557 314.32910195 26.63995567 312.09921265 27.43789673 C306.20181299 29.54586578 300.28822983 31.60767683 294.37744141 33.67773438 C293.20152939 34.09085373 292.02561737 34.50397308 290.81407166 34.92961121 C202.65749221 65.88416972 102.97823056 93.83692791 -53.76953125 64.63916016 C-65.84054986 58.62432457 -75.66897504 50.9229206 -85.19287109 41.43164062 C-84.79455078 40.88636719 -84.39623047 40.34109375 -83.98583984 39.77929688 C-76.5376515 29.17786091 -74.84065332 19.25428769 -76.19287109 6.43164062 C-78.02810561 -2.13278712 -82.40843585 -9.96853073 -88.75537109 -16.00585938 C-92.56326579 -18.44681751 -94.97936245 -19.56835938 -99.56787109 -19.56835938 C-104.67658341 -18.15905943 -108.42851261 -15.32323491 -111.30615234 -10.83007812 C-112.99882038 -6.51265614 -113.45834968 -1.85180738 -114.21630859 2.70507812 C-115.60689561 8.01155818 -117.61661125 11.38080073 -122.19287109 14.43164062 C-128.54995577 15.52175442 -133.65650934 14.44584098 -139.08740234 11.05273438 C-144.98723767 6.51018955 -150.43836629 0.42831017 -151.57568359 -7.10351562 C-151.96327813 -13.22919451 -151.15008633 -17.0254364 -147.08349609 -21.66210938 C-146.14763672 -22.60570312 -146.14763672 -22.60570312 -145.19287109 -23.56835938 C-144.52771484 -24.25929688 -143.86255859 -24.95023438 -143.17724609 -25.66210938 C-104.81087675 -62.64839349 -37.29667187 -18.32037162 0 0 Z M466.80712891 49.43164062 C466.55060547 50.23085937 466.29408203 51.03007813 466.02978516 51.85351562 C461.78660111 64.02588199 455.51170743 74.27589933 443.80712891 80.43164062 C442.69337891 81.02976562 441.57962891 81.62789062 440.43212891 82.24414062 C428.37402557 86.19420896 410.85888516 86.52648274 399.18212891 81.24414062 C388.06389137 75.00708055 382.70374247 67.12679237 377.47119141 55.84570312 C376.04818826 52.4554924 376.04818826 52.4554924 373.80712891 50.43164062 C369.65335708 65.76103666 369.05218186 80.79841412 376.55712891 95.30664062 C383.17499596 106.39075293 391.21061502 113.22840342 403.80712891 116.43164062 C418.47381369 119.5885952 436.79321043 119.04270496 450.11962891 111.80664062 C461.22737019 104.48562933 467.42632431 93.55744619 470.30322266 80.76757812 C471.93079908 69.99276986 471.11640588 59.83222542 467.80712891 49.43164062 C467.47712891 49.43164062 467.14712891 49.43164062 466.80712891 49.43164062 Z M338.80712891 80.43164062 C333.94356482 93.18881285 333.94356482 93.18881285 330.80712891 106.43164062 C330.64277344 107.49511719 330.64277344 107.49511719 330.47509766 108.58007812 C327.73609682 129.39648447 332.37490362 150.90026653 344.68603516 168.04882812 C346.65405853 170.58299521 348.69301791 173.01840111 350.80712891 175.43164062 C351.67917969 176.44677734 351.67917969 176.44677734 352.56884766 177.48242188 C366.32298578 192.37030674 387.00438431 201.62599395 407.14428711 202.73364258 C411.02761695 202.87654618 414.90686348 202.89877708 418.79248047 202.87768555 C421.17324435 202.86917239 423.55159958 202.89806803 425.93212891 202.9296875 C450.01145013 203.03992699 471.87000128 194.5123501 489.18212891 177.55664062 C494.28795641 172.36757041 498.28659092 166.81971358 501.80712891 160.43164062 C502.26603516 159.63371094 502.72494141 158.83578125 503.19775391 158.01367188 C513.26430169 139.42694359 514.48748291 116.59809574 508.80712891 96.43164062 C507.04670404 91.00454594 504.97484404 85.70711565 502.80712891 80.43164062 C502.47712891 80.43164062 502.14712891 80.43164062 501.80712891 80.43164062 C501.64857422 81.67816406 501.49001953 82.9246875 501.32666016 84.20898438 C498.22968703 107.31751986 492.57731653 129.85223214 474.11962891 145.68164062 C461.7935868 155.03960204 446.44637537 159.53986027 431.09228516 159.63476562 C430.35948837 159.6404657 429.62669159 159.64616577 428.87168884 159.65203857 C427.3227582 159.66144776 425.77380791 159.66800624 424.22485352 159.671875 C421.90749857 159.6814836 419.59106947 159.71250389 417.27392578 159.74414062 C396.42933481 159.89303852 377.44130974 154.97881421 361.80712891 140.43164062 C347.33515599 123.07017058 342.74503844 102.31133533 339.80712891 80.43164062 C339.47712891 80.43164062 339.14712891 80.43164062 338.80712891 80.43164062 Z " fill="#FFD200" transform="translate(277.19287109375,1271.568359375)"/>
<path d="M0 0 C3.38239577 3.73751822 4.81383087 6.32447779 5.375 11.375 C5 15 5 15 2.9375 17.8125 C-3.92166566 22.92038932 -11.46938359 22.27955395 -19.6875 22.1875 C-21.4813916 22.17783203 -21.4813916 22.17783203 -23.31152344 22.16796875 C-31.28655396 22.09975143 -39.23132397 21.80996361 -47.19287109 21.36279297 C-82.68978307 19.37731038 -114.1802656 28.75046983 -141.125 52.375 C-142.76020901 53.90583396 -144.38473906 55.44813235 -146 57 C-146.95519531 57.89203125 -147.91039062 58.7840625 -148.89453125 59.703125 C-169.33777589 79.13279146 -190.37939132 111.08302636 -191.5625 140.1875 C-191.24622304 145.98591093 -188.91621616 149.13853287 -184.8125 153.125 C-170.54610989 162.63592674 -153.10025092 162.54156381 -136.5625 162.4375 C-135.5766391 162.43545563 -134.5907782 162.43341125 -133.57504272 162.43130493 C-113.43650368 162.36532241 -93.33904066 161.39966249 -73.23408127 160.31749344 C-70.83836883 160.18888867 -68.44252684 160.06294298 -66.04666138 159.93722534 C-15.15947851 157.45474018 -15.15947851 157.45474018 29 134 C29.825 133.32582031 30.65 132.65164063 31.5 131.95703125 C41.40409264 123.49728546 49.80078724 113.23642143 57.5625 102.8125 C58.32691406 101.78769531 59.09132813 100.76289062 59.87890625 99.70703125 C65.63734836 90.50034948 66.81754733 79.87629613 67.83963013 69.30496216 C68.06722688 66.95111371 68.31182203 64.59953259 68.56030273 62.24780273 C69.28131685 55.37231993 69.95462519 48.49232002 70.61720276 41.61099243 C70.8075665 39.64851614 71.0032007 37.68655334 71.19897461 35.72460938 C71.43565263 33.34034456 71.66101514 30.95492053 71.87329102 28.56835938 C72.03075806 26.97411133 72.03075806 26.97411133 72.19140625 25.34765625 C72.27592041 24.42992432 72.36043457 23.51219238 72.44750977 22.56665039 C73.29205478 18.64322938 74.99175415 15.88221511 78 13.25 C82.10980296 10.68137315 86.12544791 10.78399494 90.8125 10.75 C91.51181641 10.729375 92.21113281 10.70875 92.93164062 10.6875 C97.74353272 10.65148958 100.9748162 11.35865257 105 14 C108.84645033 17.9135708 109.72408996 21.32398126 110.16015625 26.6328125 C110.27260681 27.74518028 110.27260681 27.74518028 110.3873291 28.88002014 C110.62796568 31.29377635 110.84492804 33.70906637 111.0625 36.125 C111.22653112 37.79486577 111.39248037 39.46454419 111.56030273 41.1340332 C111.89602668 44.49340559 112.22365313 47.85338364 112.54296875 51.21435547 C113.17663608 57.87634905 113.85683366 64.5327205 114.5625 71.1875 C114.66506104 72.24662598 114.76762207 73.30575195 114.87329102 74.39697266 C116.90651882 93.70561488 126.76641956 105.65730567 139 120 C139.84433594 121.00160156 140.68867187 122.00320313 141.55859375 123.03515625 C162.42688542 147.10250867 191.25864029 155.73820002 221.90974426 158.33068848 C225.87473344 158.60350963 229.84064736 158.84588069 233.80859375 159.0703125 C235.2897376 159.1573058 236.77087241 159.24445299 238.2519989 159.33174133 C242.97991291 159.60707678 247.70859591 159.86731201 252.4375 160.125 C253.24256737 160.16928761 254.04763474 160.21357521 254.87709808 160.25920486 C276.29020081 161.43454526 297.67453947 162.40115307 319.125 162.4375 C320.59499954 162.44635223 320.59499954 162.44635223 322.09469604 162.4553833 C337.84468506 162.52074499 355.10721712 162.31422631 368 152 C368.66 152 369.32 152 370 152 C370.68620031 150.67661368 371.34786461 149.34050052 372 148 C372.391875 147.29875 372.78375 146.5975 373.1875 145.875 C377.82964403 129.44895189 364.47444717 106.79780401 357 93 C351.59552881 83.6533277 345.0802677 75.13755599 338 67 C337.16984375 66.02417969 336.3396875 65.04835938 335.484375 64.04296875 C325.39046541 52.41973558 313.38979155 43.55486438 300 36 C298.40478516 35.09121094 298.40478516 35.09121094 296.77734375 34.1640625 C274.64775801 22.30985166 251.44543849 20.11569335 226.75 21.5 C218.43908159 21.95271256 210.13536113 22.17316664 201.8125 22.25 C200.1114209 22.2819043 200.1114209 22.2819043 198.37597656 22.31445312 C191.04741243 22.34487112 183.8940228 21.97778214 177.875 17.375 C176.40798846 13.39311152 176.72007225 10.01791752 178 6 C182.54647369 -1.65367908 188.81442839 -4.53350714 197.06640625 -6.8671875 C255.76802155 -20.64075087 325.20899071 2.7248635 378 28 C378.94182129 28.44553223 379.88364258 28.89106445 380.85400391 29.35009766 C406.15510349 41.38360026 429.31988021 56.28453175 451 74 C451.53109375 74.42667969 452.0621875 74.85335938 452.609375 75.29296875 C462.46651785 83.26002838 471.40321431 92.19322925 480.375 101.125 C480.98096008 101.72569305 481.58692017 102.32638611 482.21124268 102.94528198 C489.62437132 110.30859492 496.53134536 117.7833726 503 126 C504.08439199 127.31722925 505.17256092 128.63136435 506.265625 129.94140625 C512.14498117 137.05446339 517.81202081 144.29282681 523.25 151.75 C523.81106445 152.51256104 524.37212891 153.27512207 524.95019531 154.06079102 C525.72508301 155.13671509 525.72508301 155.13671509 526.515625 156.234375 C527.20060059 157.18135254 527.20060059 157.18135254 527.89941406 158.14746094 C529.0559543 160.09418395 529.56781723 161.78766497 530 164 C499.75216853 179.31444186 468.58518303 188.59177253 435 193 C434.11715332 193.11859375 433.23430664 193.2371875 432.32470703 193.359375 C367.68256763 201.60999564 300.95497542 188.43270719 237.51953125 177.0625 C146.11760956 160.6870346 65.86422584 155.6844656 -64.62370682 178.62457561 C-84.13998762 182.13811608 -103.65822057 185.51546963 -123.28125 188.3828125 C-124.11546415 188.50524385 -124.94967831 188.62767521 -125.80917168 188.7538166 C-153.09432973 192.73613782 -180.41705778 195.22190223 -208 195.1875 C-208.90041016 195.18689575 -209.80082031 195.1862915 -210.72851562 195.18566895 C-224.90113128 195.15993023 -238.92600305 194.80997626 -253 193 C-253.98178223 192.87641113 -254.96356445 192.75282227 -255.97509766 192.62548828 C-288.42614541 188.37527168 -318.7672411 178.58190686 -348 164 C-346.75137487 160.6022172 -345.34778645 157.82729013 -343.19921875 154.91796875 C-342.64065186 154.15863037 -342.08208496 153.39929199 -341.5065918 152.61694336 C-340.9062915 151.81522705 -340.30599121 151.01351074 -339.6875 150.1875 C-339.06593018 149.35162354 -338.44436035 148.51574707 -337.80395508 147.65454102 C-329.72612014 136.86535078 -321.3334049 126.32126524 -312.1953125 116.40625 C-310.38510819 114.42211147 -308.63244476 112.40796757 -306.8828125 110.37109375 C-302.38642515 105.22225649 -297.58025063 100.39623566 -292.75 95.5625 C-291.87214844 94.67240234 -290.99429688 93.78230469 -290.08984375 92.86523438 C-284.04076662 86.8028723 -277.68889214 81.33991157 -271 76 C-269.96070774 75.12490764 -268.92557447 74.24479697 -267.8984375 73.35546875 C-215.01586573 27.92229951 -138.58056584 -3.17061213 -69 -9 C-68.29230469 -9.06316406 -67.58460938 -9.12632813 -66.85546875 -9.19140625 C-45.502181 -11.02614944 -18.46080045 -12.57768822 0 0 Z M-202.0625 48.75 C-202.76640869 49.06437012 -203.47031738 49.37874023 -204.19555664 49.70263672 C-217.93101854 56.04208067 -230.11658953 64.55517504 -241.96875 73.875 C-245.07776654 76.31356068 -248.25241743 78.61294773 -251.50366211 80.85693359 C-258.73407314 85.8483735 -265.16958011 91.40507584 -271.47265625 97.51953125 C-272.93969604 98.9415468 -274.4216799 100.3463329 -275.90625 101.75 C-285.12120896 110.65434237 -296.63192477 122.30634013 -300 135 C-299.19211896 139.30641674 -297.0371919 141.9628081 -294 145 C-290.14893042 145.53118201 -287.49891231 145.86740931 -284.08422852 143.89135742 C-279.26836101 140.1426459 -274.84501541 136.15914344 -270.5625 131.8125 C-269.90854248 131.1532251 -269.25458496 130.4939502 -268.58081055 129.81469727 C-264.20025443 125.34842872 -260.12470217 120.7327277 -256.24609375 115.8203125 C-252.0819196 110.59155817 -247.67196454 105.56733913 -243.30273438 100.50976562 C-242.25548716 99.29608932 -241.21291955 98.07837588 -240.171875 96.859375 C-225.08850827 79.33829243 -208.38755192 63.28096889 -192 47 C-196.04474702 45.65175099 -198.36273021 47.08851486 -202.0625 48.75 Z M374 46 C378.58511824 51.51250168 383.47629124 56.57926448 388.58203125 61.609375 C390.25339511 63.26808821 391.92461451 64.92694699 393.59570312 66.5859375 C396.20024502 69.16575815 398.80636347 71.74394233 401.4152832 74.31933594 C410.42445133 83.22018594 419.23711637 91.97562642 427 102 C429.13527273 104.52772227 431.31668119 107.01374916 433.5 109.5 C437.26489683 113.80476471 440.9456703 118.14288571 444.5 122.625 C456.04128691 137.40574618 456.04128691 137.40574618 472 146 C476.4548228 144.72154494 478.47060121 142.88443385 481 139 C481.94699191 136.0412636 482.18306425 134.5168873 481.13671875 131.5625 C475.22420297 121.10802466 467.95642941 111.96285737 459.875 103.125 C459.40884277 102.61404785 458.94268555 102.1030957 458.46240234 101.57666016 C451.69239546 94.33230662 443.94950767 88.28446786 436.0625 82.3125 C435.1451709 81.61697021 434.2278418 80.92144043 433.28271484 80.20483398 C406.13812804 57.51082833 406.13812804 57.51082833 374 46 Z M356 59 C359.18990658 63.36579371 362.48680973 67.57673905 366 71.6875 C380.31913021 89.1194846 391.61199162 109.30103231 403.3671875 128.49609375 C404.41134879 130.18496356 405.45561379 131.87376927 406.5 133.5625 C406.95584473 134.31740723 407.41168945 135.07231445 407.88134766 135.85009766 C411.71504564 142.02404502 416.14713233 148.06689974 423 151 C425.2563195 151.34975352 425.2563195 151.34975352 427.5625 151.3125 C428.70912109 151.33763672 428.70912109 151.33763672 429.87890625 151.36328125 C432.04147293 151.12176742 432.04147293 151.12176742 433.83984375 149.91796875 C435.73912529 146.77807907 434.83643754 144.46993738 434 141 C427.09687493 125.75638684 415.87812763 111.59783163 405 99 C404.319375 98.20851563 403.63875 97.41703125 402.9375 96.6015625 C400.66832613 94.02371424 398.35009992 91.50438129 396 89 C395.49871582 88.4647168 394.99743164 87.92943359 394.48095703 87.37792969 C384.0691784 76.35296111 372.12878723 65.10336632 358 59 C357.34 59 356.68 59 356 59 Z M-199 75 C-199.845625 75.73476562 -200.69125 76.46953125 -201.5625 77.2265625 C-211.24315151 85.78788868 -220.05900446 94.79749117 -228 105 C-228.46696289 105.59586914 -228.93392578 106.19173828 -229.41503906 106.80566406 C-236.69946877 116.14017431 -243.19155631 125.68204729 -249 136 C-249.73089844 137.25683594 -249.73089844 137.25683594 -250.4765625 138.5390625 C-252.08965283 141.46896126 -253.02191504 143.49595408 -252.875 146.875 C-252.09134615 149.1650641 -252.09134615 149.1650641 -250 151 C-246.10192708 151.85708157 -242.3956906 151.65225895 -238.76879883 149.95727539 C-232.82957037 146.0948208 -229.37665099 141.97030011 -225.75 135.9375 C-225.20190674 135.0619043 -224.65381348 134.18630859 -224.08911133 133.28417969 C-222.37342939 130.53419014 -220.68462342 127.76910281 -219 125 C-216.89968518 121.58095765 -214.79364676 118.16545227 -212.6875 114.75 C-212.16148193 113.89462646 -211.63546387 113.03925293 -211.09350586 112.15795898 C-201.46804776 96.57902478 -191.38532287 81.34862608 -180 67 C-178.29762972 64.68880937 -176.64249586 62.35424406 -175 60 C-183.59957314 60 -192.94884912 69.70524298 -199 75 Z " fill="#FFD200" transform="translate(607,1080)"/>
<path d="M0 0 C14.01258694 6.85847363 25.72618395 18.39125799 37 29 C37.65871094 29.61617188 38.31742188 30.23234375 38.99609375 30.8671875 C51.28235773 42.72783032 61.46387234 57.28663482 70 72 C70.65871094 73.12792969 71.31742188 74.25585938 71.99609375 75.41796875 C89.08717937 105.54173559 98.53053461 145.01509258 89.77026367 179.24365234 C82.70631365 204.2075732 67.83989212 226.1168335 44.9453125 238.953125 C22.76509401 250.88946748 -1.01131863 255.45144184 -26.0625 255.375 C-26.83134521 255.37345917 -27.60019043 255.37191833 -28.39233398 255.37033081 C-40.98170754 255.31047616 -52.83943696 254.49449147 -65 251 C-66.01900391 250.7097998 -67.03800781 250.41959961 -68.08789062 250.12060547 C-94.96702923 242.24045588 -121.66802667 230.50222176 -143 212 C-143.84046875 211.28070313 -144.6809375 210.56140625 -145.546875 209.8203125 C-152.01545999 204.15540019 -158.21193755 198.18209367 -163 191 C-163 190.01 -163 189.02 -163 188 C-161.79988281 187.96261719 -160.59976562 187.92523438 -159.36328125 187.88671875 C-114.78616284 186.24057174 -73.65778091 173.3879762 -42.25390625 140.59765625 C-11.32088731 107.13432901 -1.59890511 59.97995174 -0.4375 15.875 C-0.39420698 14.33071997 -0.35058967 12.786449 -0.30664062 11.2421875 C-0.20069059 7.49488861 -0.0991213 3.74748647 0 0 Z " fill="#FFD200" transform="translate(1192,272)"/>
<path d="M0 0 C0.01458252 0.77786865 0.02916504 1.5557373 0.04418945 2.35717773 C1.17250872 56.67996914 10.79270198 108.61774603 50.4921875 148.50390625 C81.42289239 177.82841726 122.71899304 186.53270803 164 188 C161.03864817 194.44584467 156.82897053 198.89166754 152 204 C151.41605469 204.66 150.83210937 205.32 150.23046875 206 C139.54892754 217.57367896 124.86398751 225.81548943 111 233 C110.30277832 233.36689941 109.60555664 233.73379883 108.88720703 234.11181641 C94.85567023 241.4140396 80.14521984 246.51497542 65 251 C64.14921875 251.25716797 63.2984375 251.51433594 62.421875 251.77929688 C40.48644697 258.1280575 12.07433614 257.54974839 -10 252 C-11.21115479 251.70198486 -11.21115479 251.70198486 -12.44677734 251.39794922 C-39.58508856 244.50100548 -63.80054806 230.20683135 -78.74609375 205.96875 C-94.23488548 179.44279892 -95.82272686 146.91905267 -88.38183594 117.56103516 C-85.30553194 105.90735081 -81.28679966 94.82687515 -76 84 C-75.66629395 83.31341309 -75.33258789 82.62682617 -74.98876953 81.91943359 C-67.01974382 65.73989655 -56.98234811 51.44184577 -45 38 C-44.319375 37.2268042 -44.319375 37.2268042 -43.625 36.43798828 C-11.48927341 0 -11.48927341 0 0 0 Z " fill="#FFD200" transform="translate(204,272)"/>
<path d="M0 0 C3.74566468 3.35407246 5.98379433 7.09653091 8.5 11.375 C13.53975998 19.68384494 19.438119 26.85976739 26 34 C26.66386719 34.74636719 27.32773437 35.49273438 28.01171875 36.26171875 C48.347319 58.0089008 79.12470392 70.20080134 108.515625 71.203125 C131.95670208 71.5932746 154.88462528 67.13085019 176.78076172 58.76733398 C179 58 179 58 181 58 C180.40383338 65.59875867 178.21390109 72.5627341 175.9375 79.8125 C175.73714142 80.45383881 175.53678284 81.09517761 175.33035278 81.75595093 C171.86547833 92.80261207 167.89846261 103.50399523 163 114 C162.68208496 114.69335449 162.36416992 115.38670898 162.03662109 116.10107422 C149.72131698 142.74986774 130.44886232 166.97291295 102.33984375 177.90625 C81.16180394 184.84174842 59.6265506 186.77522567 38.84375 177.4453125 C16.78504265 166.23415629 3.56203849 147.24737679 -3.98193359 124.13232422 C-9.40656679 106.37863603 -11.2349522 88.35956641 -11.25 69.875 C-11.25067474 69.12666901 -11.25134949 68.37833801 -11.25204468 67.60733032 C-11.22004784 45.13269293 -9.55124708 20.68511358 0 0 Z " fill="#FFD200" transform="translate(14,633)"/>
<path d="M0 0 C0.66 0 1.32 0 2 0 C5.94865589 12.88629768 9.30260536 25.61394097 11 39 C11.14139404 40.0194873 11.14139404 40.0194873 11.28564453 41.05957031 C12.38486771 50.11685469 12.24385127 59.2653943 12.25 68.375 C12.25067474 69.27117035 12.25134949 70.1673407 12.25204468 71.09066772 C12.23663621 83.95616094 11.93166384 96.41815686 9 109 C8.74259033 110.17731689 8.74259033 110.17731689 8.47998047 111.37841797 C3.23758429 134.9949677 -7.32504933 158.72900951 -28.3046875 172.44140625 C-48.77228546 184.27701724 -69.91789573 186.39149375 -92.60742188 180.42553711 C-120.62892247 172.40799062 -140.43670463 153.11548508 -154.625 128.25 C-162.26322441 114.38325167 -167.83825676 100.03990117 -172.875 85.0625 C-173.11619568 84.35062531 -173.35739136 83.63875061 -173.605896 82.90530396 C-176.37258384 74.69760526 -178.79701119 66.60924532 -180 58 C-179.39486572 58.18175781 -178.78973145 58.36351562 -178.16625977 58.55078125 C-176.39500233 59.08251638 -174.62358669 59.61372464 -172.85205078 60.14453125 C-171.06082387 60.68180732 -169.27006128 61.22063639 -167.47998047 61.76171875 C-155.7357966 65.29689813 -144.14550894 68.25188163 -132 70 C-131.14019531 70.13148438 -130.28039063 70.26296875 -129.39453125 70.3984375 C-99.36858863 74.22274 -67.2215696 67.57070274 -42.625 49.5625 C-37.19486976 45.28175961 -32.03137901 40.74059879 -27 36 C-26.09701172 35.17628906 -26.09701172 35.17628906 -25.17578125 34.3359375 C-16.25434927 25.89281073 -9.44199994 15.54136068 -3.22338867 5.02954102 C-2.19876368 3.32211248 -1.10554064 1.65618492 0 0 Z " fill="#FFD200" transform="translate(1381,633)"/>
<path d="M0 0 C6.26752553 1.74835937 12.29956796 3.83650313 18.3371582 6.25854492 C46.49497903 17.53364681 75.78109642 25.4642323 104.95117188 33.63647461 C116.6066273 36.90198062 128.23242973 40.22644626 139.8125 43.75 C169.04176237 52.54720079 199.28432503 53.04887786 229.58178711 54.125 C232.9830413 54.24666856 236.38409529 54.37306056 239.78515625 54.5 C240.82269547 54.53544922 241.86023468 54.57089844 242.92921448 54.60742188 C247.70055803 54.78772716 252.3061305 55.04298296 257 56 C255.181341 68.37166711 251.77469212 78.1169168 244 88 C243.4534375 88.7115625 242.906875 89.423125 242.34375 90.15625 C230.57142935 104.59400174 212.69089955 110.67725106 195 114 C194.19433594 114.15210938 193.38867188 114.30421875 192.55859375 114.4609375 C190.35856286 114.77953297 188.22270628 114.91742268 186 115 C184.73414063 115.0515625 183.46828125 115.103125 182.1640625 115.15625 C148.65006608 116.05990553 121.02371774 105.01601248 94.3671875 85.390625 C89.89749429 82.17018989 85.28016864 79.16581727 80.6875 76.125 C50.80654599 56.30498211 18.04223958 33.87462327 0 2 C0 1.34 0 0.68 0 0 Z " fill="#FFD200" transform="translate(834,1330)"/>
<path d="M0 0 C-5.50139219 19.47089593 -28.48150883 37.9028558 -44 50 C-44.57983643 50.45452042 -45.15967285 50.90904083 -45.75708008 51.37733459 C-56.75335878 59.97905637 -68.06877025 67.95326973 -79.6875 75.6875 C-82.83921711 77.79262867 -85.98848142 79.90139039 -89.13671875 82.01171875 C-89.89514572 82.51873825 -90.65357269 83.02575775 -91.4349823 83.54814148 C-96.21821454 86.75888948 -100.90672209 90.07668666 -105.5625 93.46875 C-110.59703205 97.11497305 -115.63905354 100.2579639 -121.3125 102.8125 C-122.11244385 103.17939941 -122.9123877 103.54629883 -123.73657227 103.92431641 C-151.24258144 116.18599864 -184.79972991 119.8468718 -213.4375 109.25 C-230.53164115 102.46441118 -244.36767968 91.86749585 -252.21875 74.93408203 C-254.47340976 69.35238997 -257 62.07142764 -257 56 C-251.09657484 55.01787778 -245.26951992 54.73265141 -239.29296875 54.53515625 C-237.17040284 54.45804618 -235.04784451 54.38072722 -232.92529297 54.30322266 C-231.2732486 54.24464081 -231.2732486 54.24464081 -229.58782959 54.18487549 C-194.15220009 52.90957192 -160.58421302 50.83794722 -126.5625 40.125 C-122.18709987 38.77274794 -117.80837175 37.43141753 -113.4296875 36.08984375 C-112.32261948 35.74913345 -111.21555145 35.40842316 -110.07493591 35.05738831 C-99.20366818 31.72416328 -88.26705157 28.63827029 -77.31939697 25.56738281 C-52.89748424 18.70623079 -29.00416426 11.13533739 -5.55078125 1.3984375 C-2 0 -2 0 0 0 Z " fill="#FFD200" transform="translate(562,1330)"/>
<path d="M0 0 C4.09709322 1.52835388 5.7366847 4.09832588 8.1875 7.625 C18.72411581 22.14303372 32.06073517 27.84278536 49.40771484 30.67480469 C77.14980599 34.1549766 102.64311885 25.30123297 128 15 C126.77492343 38.68481373 110.67637455 62.2728093 94.87109375 79.0078125 C92.83695155 81.11085998 92.83695155 81.11085998 90.625 84.0625 C79.02641852 97.04186499 61.4345207 108.92442364 43.7578125 110.15625 C27.8479991 110.72277155 11.89956294 106.84707452 0 96 C-6.19854948 90.08116845 -10.08715986 84.05444434 -13 76 C-13.3196875 75.12085938 -13.639375 74.24171875 -13.96875 73.3359375 C-21.15236326 49.72313466 -13.219777 24.75656321 -2.453125 3.66796875 C-1 1 -1 1 0 0 Z " fill="#FFD200" transform="translate(1229,954)"/>
<path d="M0 0 C3.67069909 1.22356636 4.16177593 2.6814572 5.85498047 6.01513672 C6.35989014 7.05951904 6.35989014 7.05951904 6.875 8.125 C7.22578613 8.84059082 7.57657227 9.55618164 7.93798828 10.29345703 C17.74634135 30.81659029 22.30361643 54.70323176 15.25 76.84375 C10.22345938 89.53576506 1.5133948 99.14274164 -10.98046875 104.8203125 C-18.09110325 107.59833529 -25.36674016 109.52650832 -33 110 C-33.83015625 110.05285156 -34.6603125 110.10570312 -35.515625 110.16015625 C-53.61584734 110.75487784 -69.02529109 101.98082452 -82 90 C-82.53979492 89.50258301 -83.07958984 89.00516602 -83.63574219 88.49267578 C-103.16091049 70.29451412 -120.83876786 45.71164005 -126 19 C-126 17.68 -126 16.36 -126 15 C-120.8422318 16.6560813 -115.7857058 18.44721336 -110.77270508 20.49951172 C-83.34604116 31.67968869 -53.34713729 36.12537801 -25.19921875 24.5078125 C-19.95474815 22.03605957 -15.74944509 19.49933411 -12 15 C-11.44957031 14.3915625 -10.89914063 13.783125 -10.33203125 13.15625 C-6.5557745 8.96935553 -3.19323299 4.64470254 0 0 Z " fill="#FFD200" transform="translate(165,954)"/>
<path d="M0 0 C3.71026054 1.76877033 6.75061157 4.05639388 9.9375 6.625 C11.20100517 7.62603303 12.46538244 8.62596594 13.73046875 9.625 C14.4167334 10.16769531 15.10299805 10.71039062 15.81005859 11.26953125 C16.53273926 11.84058594 17.25541992 12.41164063 18 13 C18.75490723 13.59683594 19.50981445 14.19367188 20.28759766 14.80859375 C47.32797072 36.08263904 76.45844626 53.30600913 107 69 C105.66067639 79.51673427 98.948743 87.36827747 91 94 C65.1240095 112.9437807 30.49500575 122.94346485 -1.5 118.42578125 C-8.09085469 117.33717941 -13.90459496 115.67706052 -20 113 C-19.66266846 111.99437012 -19.32533691 110.98874023 -18.9777832 109.95263672 C-6.48936793 72.61161049 -0.81009526 39.26986193 0 0 Z " fill="#FFD200" transform="translate(849,1385)"/>
<path d="M0 0 C0.029729 1.24366333 0.029729 1.24366333 0.06005859 2.51245117 C0.63062527 27.31746497 0.63062527 27.31746497 3 52 C3.09555176 52.73959961 3.19110352 53.47919922 3.28955078 54.24121094 C5.28059009 68.585529 10.1565062 82.13719769 14.84716797 95.77563477 C15.24303352 96.9279509 15.24303352 96.9279509 15.64689636 98.10354614 C16.14750682 99.55543832 16.65147483 101.00617877 17.15937805 102.45553589 C18.36848326 105.94685227 19.3890588 109.3532933 20 113 C-5.43647034 124.59272763 -36.59302376 119.32924604 -62 110 C-80.19094491 102.92810137 -97.56272674 92.29434762 -106.22265625 74.12890625 C-107 72 -107 72 -107 69 C-105.8346875 68.44054688 -104.669375 67.88109375 -103.46875 67.3046875 C-70.59149686 51.31347465 -40.56753653 31.04262578 -11.9765625 8.35546875 C-1.41791045 0 -1.41791045 0 0 0 Z " fill="#FFD200" transform="translate(547,1385)"/>
<path d="M0 0 C2.35424519 2.28235054 4.02998968 4.51506748 5.75 7.3125 C13.0817413 18.36375883 24.54011029 23.68533344 37.28125 26.4765625 C61.54194197 31.14744285 82.83480763 25.56033971 105 16 C103.10430671 26.74226196 93.62851709 37.77185655 87 46 C86.54077148 46.57282715 86.08154297 47.1456543 85.60839844 47.73583984 C73.11224114 63.2034914 57.26011359 77.43778223 37 81 C24.5088008 82.2747283 13.65646496 81.26557108 3.1875 73.8125 C-3.96874377 67.79562241 -8.47799188 60.24619931 -10 51 C-11.47967836 32.89449116 -5.91449885 16.79698256 0 0 Z " fill="#FFD200" transform="translate(1195,1063)"/>
<path d="M0 0 C2.52018185 3.01482183 3.70984111 5.66363448 4.7890625 9.4296875 C5.09070313 10.47253906 5.39234375 11.51539063 5.703125 12.58984375 C6.00734375 13.67394531 6.3115625 14.75804687 6.625 15.875 C6.93695313 16.95136719 7.24890625 18.02773437 7.5703125 19.13671875 C11.32426627 32.25937612 14.34791422 49.16098552 8 62 C2.78804483 70.74976716 -5.22545163 77.93960732 -15.2109375 80.5859375 C-32.62884091 83.17178871 -48.00595617 79.35948509 -62.44921875 69.29296875 C-77.50900548 57.77380821 -100.77277123 35.70565446 -104 16 C-102.9584375 16.45890625 -101.916875 16.9178125 -100.84375 17.390625 C-76.25081982 28.00274184 -49.120994 32.70244735 -23.4375 22.6875 C-13.17004094 17.97456797 -4.48375514 10.55001208 0 0 Z " fill="#FFD200" transform="translate(200,1063)"/>
<path d="M0 0 C0.66 0 1.32 0 2 0 C3.26171875 1.7578125 3.26171875 1.7578125 4.6875 4.125 C11.54061736 14.62653954 21.88325523 20.06971018 34 22.875 C43.2852701 24.52721768 52.60310072 24.25757998 62 24 C58.52469147 35.1947196 53.58957987 42.34123618 43 48 C31.81681034 52.7979882 19.36719403 55.45135633 7.328125 52.30078125 C1.45449549 49.68414555 -1.95133155 45.13478935 -4.75 39.4375 C-8.82586133 28.22888134 -7.58342621 16.33564018 -2.91015625 5.46484375 C-1.99372413 3.61567288 -1.0052128 1.80245054 0 0 Z " fill="#FFD200" transform="translate(1166,1150)"/>
<path d="M0 0 C0.66 0 1.32 0 2 0 C2.81974263 2.03876949 3.6304807 4.08116075 4.4375 6.125 C4.88996094 7.26195312 5.34242188 8.39890625 5.80859375 9.5703125 C9.33933925 19.73422905 9.54329878 31.59459405 5.40234375 41.5859375 C2.14094344 47.20027006 -2.80545748 51.10550975 -9 53 C-24.89444319 54.4238772 -38.01337751 50.85356445 -51.1875 41.8125 C-56.17334683 36.82665317 -59.93107413 31.04233516 -61 24 C-60.43716309 24.01571045 -59.87432617 24.0314209 -59.29443359 24.04760742 C-41.33484639 24.48131663 -24.17152722 23.79014146 -9.484375 11.9765625 C-6.46107353 9.05403774 -3.91367652 6.02423015 -1.625 2.5 C-1.08875 1.675 -0.5525 0.85 0 0 Z " fill="#FFD200" transform="translate(229,1150)"/>
<path d="M0 0 C3.70932829 2.18911178 5.72536762 4.40679406 7.5625 8.375 C8.92812085 14.02715296 9.08329753 19.17878909 6.7109375 24.5546875 C3.75869968 29.23408486 -1.03578235 33.08887675 -6.4375 34.375 C-12.16886883 34.96201171 -16.52645881 34.68709755 -21.4375 31.375 C-25.60364393 27.20885607 -27.38682557 22.87153559 -27.47265625 16.94921875 C-27.10786658 11.0858921 -26.00588172 7.0702391 -22.4375 2.375 C-15.83592589 -2.87931409 -7.73886979 -3.4362892 0 0 Z " fill="#FFD200" transform="translate(849.4375,967.625)"/>
<path d="M0 0 C4.32866879 3.06174134 7.1914475 6.67105312 8.5625 11.8125 C9.34515665 18.66667487 8.63068922 24.13015829 4.5625 29.8125 C-0.02768459 34.17877314 -3.8629707 35.18005409 -10.02734375 35.08984375 C-15.52253916 34.45749549 -19.77558468 31.88571788 -23.375 27.75 C-27.28497478 22.18124804 -27.06686958 16.41213938 -26.4375 9.8125 C-24.27812362 5.33379344 -21.50797061 2.63051812 -17.4375 -0.1875 C-11.76602986 -2.07799005 -5.62952086 -1.94474357 0 0 Z " fill="#FFD200" transform="translate(565.4375,967.1875)"/>
</svg>
